<svg fill="none" height="512" viewBox="0 0 512 512" width="512" xmlns="http://www.w3.org/2000/svg"><path d="m75 512h167v-182h-60v-60h60v-75c0-41.355 33.645-75 75-75h75v60h-60c-16.543 0-30 13.457-30 30v60h87.293l-10 60h-77.293v182h135c41.355 0 75-33.645 75-75v-362c0-41.3555-33.645-75-75-75h-362c-41.3555 0-75 33.6445-75 75v362c0 41.355 33.6445 75 75 75zm-45-437c0-24.8125 20.1875-45 45-45h362c24.812 0 45 20.1875 45 45v362c0 24.812-20.188 45-45 45h-105v-122h72.707l20-120h-92.707v-30h90v-120h-105c-57.898 0-105 47.102-105 105v45h-60v120h60v122h-137c-24.8125 0-45-20.188-45-45z" fill="#9b9b9b"/></svg>