<svg fill="none" height="17" viewBox="0 0 17 17" width="17" xmlns="http://www.w3.org/2000/svg"><path d="m11.6665 9.36213c.7882-.61671 1.3635-1.46242 1.6459-2.41945s.2578-1.9778-.0703-2.92029c-.3281-.9425-.9435-1.75985-1.7604-2.33834-.817-.5785-1.79493-.889372-2.79782-.889372s-1.98085.310872-2.79781.889372c-.81696.57849-1.4323 1.39584-1.76042 2.33834-.32812.94249-.35269 1.96326-.07031 2.92029.28239.95703.85769 1.80274 1.64588 2.41945-1.35057.53813-2.529 1.43067-3.40964 2.58247s-1.430491 2.5196-1.59093 3.9578c-.011613.105-.002318.2112.027355.3126.029673.1015.079142.1961.145584.2785.134181.1664.329361.273.542581.2964.21322.0233.42702-.0386.59438-.172.16735-.1335.27455-.3276.298-.5396.17654-1.563.9259-3.0065 2.10492-4.0547s2.70503-1.6276 4.28649-1.6276c1.58144 0 3.10744.5794 4.28644 1.6276 1.1791 1.0482 1.9284 2.4917 2.105 4.0547.0218.1964.1161.3779.2645.5093.1485.1314.3407.2034.5394.2023h.0884c.2108-.0242.4034-.1301.5359-.2949.1325-.1647.1942-.3749.1716-.5846-.1612-1.4422-.714-2.8136-1.5992-3.9672-.8851-1.1536-2.0693-2.04579-3.4255-2.58107zm-2.98262-.56767c-.63603 0-1.25777-.18757-1.78661-.53898-.52883-.35142-.94101-.85091-1.18441-1.43529-.24339-.58439-.30708-1.22743-.18299-1.84781.12408-.62038.43035-1.19024.88009-1.63751s1.02274-.75187 1.64655-.87527c.6238-.1234 1.27039-.06007 1.858.182.58759.24206 1.08989.65197 1.44319 1.17791.3534.52593.542 1.14426.542 1.7768 0 .8482-.3388 1.66166-.9419 2.26143s-1.42104.93672-2.27392.93672z" fill="#000"/><path d="m11.6665 9.36213c.7882-.61671 1.3635-1.46242 1.6459-2.41945s.2578-1.9778-.0703-2.92029c-.3281-.9425-.9435-1.75985-1.7604-2.33834-.817-.5785-1.79493-.889372-2.79782-.889372s-1.98085.310872-2.79781.889372c-.81696.57849-1.4323 1.39584-1.76042 2.33834-.32812.94249-.35269 1.96326-.07031 2.92029.28239.95703.85769 1.80274 1.64588 2.41945-1.35057.53813-2.529 1.43067-3.40964 2.58247s-1.430491 2.5196-1.59093 3.9578c-.011613.105-.002318.2112.027355.3126.029673.1015.079142.1961.145584.2785.134181.1664.329361.273.542581.2964.21322.0233.42702-.0386.59438-.172.16735-.1335.27455-.3276.298-.5396.17654-1.563.9259-3.0065 2.10492-4.0547s2.70503-1.6276 4.28649-1.6276c1.58144 0 3.10744.5794 4.28644 1.6276 1.1791 1.0482 1.9284 2.4917 2.105 4.0547.0218.1964.1161.3779.2645.5093.1485.1314.3407.2034.5394.2023h.0884c.2108-.0242.4034-.1301.5359-.2949.1325-.1647.1942-.3749.1716-.5846-.1612-1.4422-.714-2.8136-1.5992-3.9672-.8851-1.1536-2.0693-2.04579-3.4255-2.58107zm-2.98262-.56767c-.63603 0-1.25777-.18757-1.78661-.53898-.52883-.35142-.94101-.85091-1.18441-1.43529-.24339-.58439-.30708-1.22743-.18299-1.84781.12408-.62038.43035-1.19024.88009-1.63751s1.02274-.75187 1.64655-.87527c.6238-.1234 1.27039-.06007 1.858.182.58759.24206 1.08989.65197 1.44319 1.17791.3534.52593.542 1.14426.542 1.7768 0 .8482-.3388 1.66166-.9419 2.26143s-1.42104.93672-2.27392.93672z" stroke="#000"/></svg>