<svg fill="none" height="18" viewBox="0 0 18 18" width="18" xmlns="http://www.w3.org/2000/svg"><path d="m17.1081 4.84867h-3.4623v-.32432c0-2.05943-2.0978-3.729672-4.68435-3.729672-2.58657 0-4.68433 1.670242-4.68433 3.729672v.32432h-3.462332c-.450612 0-.81466593.28986-.81466593.64864v10.86469c0 .3588.36405393.6487.81466593.6487h16.293312c.4506 0 .8147-.2899.8147-.6487v-10.86469c0-.35878-.3641-.64864-.8147-.64864zm-10.99798-.32432c0-1.25471 1.27546-2.27023 2.85133-2.27023 1.57585 0 2.85135 1.01552 2.85135 2.27023v.32432h-5.70268zm-4.277 11.02685v-9.24309h2.444v1.78376c0 .08918.09165.16215.20367.16215h1.42566c.11202 0 .20367-.07297.20367-.16215v-1.78376h5.70268v1.78376c0 .08918.0916.16215.2036.16215h1.4257c.112 0 .2037-.07297.2037-.16215v-1.78376h2.444v9.24309z" fill="#000"/><path d="m17.1081 4.84867h-3.4623v-.32432c0-2.05943-2.0978-3.729672-4.68435-3.729672-2.58657 0-4.68433 1.670242-4.68433 3.729672v.32432h-3.462332c-.450612 0-.81466593.28986-.81466593.64864v10.86469c0 .3588.36405393.6487.81466593.6487h16.293312c.4506 0 .8147-.2899.8147-.6487v-10.86469c0-.35878-.3641-.64864-.8147-.64864zm-10.99798-.32432c0-1.25471 1.27546-2.27023 2.85133-2.27023 1.57585 0 2.85135 1.01552 2.85135 2.27023v.32432h-5.70268zm-4.277 11.02685v-9.24309h2.444v1.78376c0 .08918.09165.16215.20367.16215h1.42566c.11202 0 .20367-.07297.20367-.16215v-1.78376h5.70268v1.78376c0 .08918.0916.16215.2036.16215h1.4257c.112 0 .2037-.07297.2037-.16215v-1.78376h2.444v9.24309z" stroke="#000"/></svg>