<svg width="17" height="17" viewBox="0 0 17 17" fill="none" xmlns="http://www.w3.org/2000/svg">
<path d="M11.6665 9.34089C12.4547 8.72418 13.03 7.87847 13.3124 6.92144C13.5948 5.96441 13.5702 4.94364 13.2421 4.00115C12.914 3.05865 12.2986 2.2413 11.4817 1.66281C10.6647 1.08431 9.68677 0.773438 8.68388 0.773438C7.68099 0.773438 6.70303 1.08431 5.88607 1.66281C5.06911 2.2413 4.45377 3.05865 4.12565 4.00115C3.79753 4.94364 3.77296 5.96441 4.05534 6.92144C4.33773 7.87847 4.91303 8.72418 5.70122 9.34089C4.35065 9.87902 3.17222 10.7715 2.29158 11.9233C1.41094 13.0751 0.861089 14.443 0.70065 15.8811C0.689037 15.9861 0.698332 16.0924 0.728005 16.1938C0.757678 16.2952 0.807147 16.3898 0.873589 16.4722C1.00777 16.6387 1.20295 16.7453 1.41617 16.7686C1.62939 16.7919 1.84319 16.7301 2.01055 16.5966C2.1779 16.4632 2.2851 16.2691 2.30855 16.057C2.48509 14.4941 3.23445 13.0506 4.41347 12.0024C5.59249 10.9542 7.1185 10.3747 8.69996 10.3747C10.2814 10.3747 11.8074 10.9542 12.9864 12.0024C14.1655 13.0506 14.9148 14.4941 15.0914 16.057C15.1132 16.2535 15.2075 16.4349 15.3559 16.5663C15.5044 16.6978 15.6966 16.7698 15.8953 16.7686H15.9837C16.1945 16.7445 16.3871 16.6385 16.5196 16.4738C16.6521 16.309 16.7138 16.0989 16.6912 15.8891C16.53 14.4469 15.9772 13.0755 15.092 11.922C14.2069 10.7684 13.0227 9.87617 11.6665 9.34089ZM8.68388 8.77322C8.04785 8.77322 7.42611 8.58565 6.89727 8.23423C6.36844 7.88282 5.95626 7.38333 5.71286 6.79895C5.46947 6.21456 5.40578 5.57152 5.52987 4.95114C5.65395 4.33075 5.96022 3.7609 6.40996 3.31363C6.8597 2.86636 7.4327 2.56176 8.05651 2.43836C8.68031 2.31496 9.3269 2.37829 9.91451 2.62035C10.5021 2.86242 11.0044 3.27233 11.3577 3.79827C11.7111 4.3242 11.8997 4.94253 11.8997 5.57507C11.8997 6.42327 11.5609 7.23673 10.9578 7.8365C10.3547 8.43627 9.53676 8.77322 8.68388 8.77322Z" fill="black"/>
<path d="M11.6665 9.34089C12.4547 8.72418 13.03 7.87847 13.3124 6.92144C13.5948 5.96441 13.5702 4.94364 13.2421 4.00115C12.914 3.05865 12.2986 2.2413 11.4817 1.66281C10.6647 1.08431 9.68677 0.773438 8.68388 0.773438C7.68099 0.773438 6.70303 1.08431 5.88607 1.66281C5.06911 2.2413 4.45377 3.05865 4.12565 4.00115C3.79753 4.94364 3.77296 5.96441 4.05534 6.92144C4.33773 7.87847 4.91303 8.72418 5.70122 9.34089C4.35065 9.87902 3.17222 10.7715 2.29158 11.9233C1.41094 13.0751 0.861089 14.443 0.70065 15.8811C0.689037 15.9861 0.698332 16.0924 0.728005 16.1938C0.757678 16.2952 0.807147 16.3898 0.873589 16.4722C1.00777 16.6387 1.20295 16.7453 1.41617 16.7686C1.62939 16.7919 1.84319 16.7301 2.01055 16.5966C2.1779 16.4632 2.2851 16.2691 2.30855 16.057C2.48509 14.4941 3.23445 13.0506 4.41347 12.0024C5.59249 10.9542 7.1185 10.3747 8.69996 10.3747C10.2814 10.3747 11.8074 10.9542 12.9864 12.0024C14.1655 13.0506 14.9148 14.4941 15.0914 16.057C15.1132 16.2535 15.2075 16.4349 15.3559 16.5663C15.5044 16.6978 15.6966 16.7698 15.8953 16.7686H15.9837C16.1945 16.7445 16.3871 16.6385 16.5196 16.4738C16.6521 16.309 16.7138 16.0989 16.6912 15.8891C16.53 14.4469 15.9772 13.0755 15.092 11.922C14.2069 10.7684 13.0227 9.87617 11.6665 9.34089ZM8.68388 8.77322C8.04785 8.77322 7.42611 8.58565 6.89727 8.23423C6.36844 7.88282 5.95626 7.38333 5.71286 6.79895C5.46947 6.21456 5.40578 5.57152 5.52987 4.95114C5.65395 4.33075 5.96022 3.7609 6.40996 3.31363C6.8597 2.86636 7.4327 2.56176 8.05651 2.43836C8.68031 2.31496 9.3269 2.37829 9.91451 2.62035C10.5021 2.86242 11.0044 3.27233 11.3577 3.79827C11.7111 4.3242 11.8997 4.94253 11.8997 5.57507C11.8997 6.42327 11.5609 7.23673 10.9578 7.8365C10.3547 8.43627 9.53676 8.77322 8.68388 8.77322Z" stroke="black"/>
</svg>
