<svg width="18" height="17" viewBox="0 0 18 17" fill="none" xmlns="http://www.w3.org/2000/svg">
<path d="M17.1081 4.82743H13.6457V4.50311C13.6457 2.44368 11.548 0.773438 8.96142 0.773438C6.37485 0.773438 4.27709 2.44368 4.27709 4.50311V4.82743H0.814758C0.364145 4.82743 9.15527e-05 5.11729 9.15527e-05 5.47607V16.3408C9.15527e-05 16.6995 0.364145 16.9894 0.814758 16.9894H17.1081C17.5587 16.9894 17.9227 16.6995 17.9227 16.3408V5.47607C17.9227 5.11729 17.5587 4.82743 17.1081 4.82743ZM6.11009 4.50311C6.11009 3.2484 7.38555 2.23287 8.96142 2.23287C10.5373 2.23287 11.8127 3.2484 11.8127 4.50311V4.82743H6.11009V4.50311ZM1.83309 15.53V6.28687H4.27709V8.07063C4.27709 8.15981 4.36874 8.23278 4.48075 8.23278H5.90642C6.01844 8.23278 6.11009 8.15981 6.11009 8.07063V6.28687H11.8127V8.07063C11.8127 8.15981 11.9044 8.23278 12.0164 8.23278H13.4421C13.5541 8.23278 13.6457 8.15981 13.6457 8.07063V6.28687H16.0897V15.53H1.83309Z" fill="black"/>
<path d="M17.1081 4.82743H13.6457V4.50311C13.6457 2.44368 11.548 0.773438 8.96142 0.773438C6.37485 0.773438 4.27709 2.44368 4.27709 4.50311V4.82743H0.814758C0.364145 4.82743 9.15527e-05 5.11729 9.15527e-05 5.47607V16.3408C9.15527e-05 16.6995 0.364145 16.9894 0.814758 16.9894H17.1081C17.5587 16.9894 17.9227 16.6995 17.9227 16.3408V5.47607C17.9227 5.11729 17.5587 4.82743 17.1081 4.82743ZM6.11009 4.50311C6.11009 3.2484 7.38555 2.23287 8.96142 2.23287C10.5373 2.23287 11.8127 3.2484 11.8127 4.50311V4.82743H6.11009V4.50311ZM1.83309 15.53V6.28687H4.27709V8.07063C4.27709 8.15981 4.36874 8.23278 4.48075 8.23278H5.90642C6.01844 8.23278 6.11009 8.15981 6.11009 8.07063V6.28687H11.8127V8.07063C11.8127 8.15981 11.9044 8.23278 12.0164 8.23278H13.4421C13.5541 8.23278 13.6457 8.15981 13.6457 8.07063V6.28687H16.0897V15.53H1.83309Z" stroke="black"/>
</svg>
